<?xml version="1.0" encoding="UTF-8" standalone="no"?>
<!-- Created with Inkscape (http://www.inkscape.org/) -->

<svg
   width="128"
   height="128"
   viewBox="0 0 33.866666 33.866667"
   version="1.1"
   id="svg5"
   inkscape:version="1.2 (dc2aedaf03, 2022-05-15)"
   sodipodi:docname="icon.svg"
   xmlns:inkscape="http://www.inkscape.org/namespaces/inkscape"
   xmlns:sodipodi="http://sodipodi.sourceforge.net/DTD/sodipodi-0.dtd"
   xmlns="http://www.w3.org/2000/svg"
   xmlns:svg="http://www.w3.org/2000/svg">
  <sodipodi:namedview
     id="namedview7"
     pagecolor="#ffffff"
     bordercolor="#000000"
     borderopacity="0.25"
     inkscape:showpageshadow="2"
     inkscape:pageopacity="0.0"
     inkscape:pagecheckerboard="0"
     inkscape:deskcolor="#d1d1d1"
     inkscape:document-units="mm"
     showgrid="false"
     inkscape:zoom="11.313708"
     inkscape:cx="78.974989"
     inkscape:cy="70.887455"
     inkscape:window-width="3840"
     inkscape:window-height="2066"
     inkscape:window-x="-11"
     inkscape:window-y="-11"
     inkscape:window-maximized="1"
     inkscape:current-layer="layer1" />
  <defs
     id="defs2" />
  <g
     inkscape:label="Livello 1"
     inkscape:groupmode="layer"
     id="layer1">
    <circle
       style="fill:#ecc6ec;stroke:#3d003d;stroke-width:1;stroke-dasharray:none;stroke-opacity:1;paint-order:fill markers stroke;stop-color:#000000;fill-opacity:1"
       id="path450"
       cx="16.933332"
       cy="16.933332"
       r="16.433332" />
    <g
       aria-label="Æ"
       id="text186"
       style="font-weight:bold;font-size:32px;-inkscape-font-specification:'sans-serif Bold';text-align:center;text-anchor:middle;fill:#3d003d;stroke-width:3.4;paint-order:fill markers stroke;stop-color:#000000">
      <path
         d="m 15.784895,7.7067699 q -3.515625,0 -7.2968751,1.3125 v -2.625 q 1.9531251,-0.6875 3.6562501,-0.953125 1.703125,-0.265625 3.703125,-0.265625 5.1875,0 8.078125,3.125 2.890625,3.1250001 2.890625,8.6875001 0,5.46875 -2.71875,8.59375 -2.703125,3.109375 -7.578125,3.109375 -4.703125,0 -7.0937501,-2.9375 -2.375,-2.953125 -2.375,-8.796875 V 15.86302 H 23.784895 q -0.265625,-4.046875 -2.28125,-6.0937501 -2.015625,-2.0625 -5.71875,-2.0625 z M 16.51927,26.17552 q 3.203125,0 5.109375,-2.03125 1.90625,-2.046875 2.15625,-5.75 H 10.11302 q 0,3.984375 1.5625,5.890625 1.578125,1.890625 4.84375,1.890625 z"
         id="path2913" />
    </g>
  </g>
</svg>
